<?xml version="1.0" encoding="UTF-8"?> <svg xmlns="http://www.w3.org/2000/svg" xmlns:xlink="http://www.w3.org/1999/xlink" width="600" zoomAndPan="magnify" viewBox="0 0 450 149.999998" height="200" preserveAspectRatio="xMidYMid meet" version="1.0"><defs><g></g><clipPath id="288ee48a0f"><rect x="0" width="443" y="0" height="121"></rect></clipPath></defs><g transform="matrix(1, 0, 0, 1, 6, 23)"><g clip-path="url(#288ee48a0f)"><g fill="#000000" fill-opacity="1"><g transform="translate(8.981985, 87.309494)"><g><path d="M 81.660156 -79.410156 L 81.660156 -49.289062 L 54.46875 -42.492188 L 54.46875 -56.71875 L 56.71875 -56.71875 L 56.71875 -54.46875 L 34.03125 -54.46875 L 34.03125 -56.71875 L 36.285156 -56.71875 L 36.285156 -22.6875 L 34.03125 -22.6875 L 34.03125 -24.9375 L 56.71875 -24.9375 L 56.71875 -22.6875 L 54.46875 -22.6875 L 54.46875 -35.789062 L 81.660156 -42.585938 L 81.660156 2.25 L 9.09375 2.25 L 9.09375 -56.71875 L 11.34375 -56.71875 L 11.34375 -54.46875 L -2.882812 -54.46875 L 3.914062 -81.660156 L 81.660156 -81.660156 Z M 77.15625 -79.410156 L 79.410156 -79.410156 L 79.410156 -77.15625 L 5.671875 -77.15625 L 5.671875 -79.410156 L 7.855469 -78.863281 L 2.183594 -56.175781 L 0 -56.71875 L 0 -58.972656 L 13.59375 -58.972656 L 13.59375 0 L 11.34375 0 L 11.34375 -2.25 L 79.410156 -2.25 L 79.410156 0 L 77.15625 0 L 77.15625 -39.703125 L 79.410156 -39.703125 L 79.953125 -37.519531 L 57.265625 -31.847656 L 56.71875 -34.03125 L 58.972656 -34.03125 L 58.972656 -20.4375 L 31.78125 -20.4375 L 31.78125 -58.972656 L 58.972656 -58.972656 L 58.972656 -45.375 L 56.71875 -45.375 L 56.175781 -47.558594 L 78.863281 -53.230469 L 79.410156 -51.046875 L 77.15625 -51.046875 Z M 77.15625 -79.410156 "></path></g></g></g><g fill="#000000" fill-opacity="1"><g transform="translate(94.055016, 87.309494)"><g><path d="M 9.09375 -51.046875 L 9.09375 -81.660156 L 36.285156 -81.660156 L 36.285156 -51.046875 L 34.03125 -51.046875 L 34.03125 -53.300781 L 56.71875 -53.300781 L 56.71875 -51.046875 L 54.46875 -51.046875 L 54.46875 -81.660156 L 81.660156 -81.660156 L 81.660156 -3.914062 L 54.46875 2.882812 L 54.46875 -28.359375 L 56.71875 -28.359375 L 56.71875 -26.109375 L 34.03125 -26.109375 L 34.03125 -28.359375 L 36.285156 -28.359375 L 36.285156 -3.914062 L 9.09375 2.882812 L 9.09375 -28.359375 L 11.34375 -28.359375 L 11.34375 -26.109375 L -2.882812 -26.109375 L 3.914062 -53.300781 L 11.34375 -53.300781 L 11.34375 -51.046875 Z M 13.59375 -48.796875 L 5.671875 -48.796875 L 5.671875 -51.046875 L 7.855469 -50.503906 L 2.183594 -27.8125 L 0 -28.359375 L 0 -30.609375 L 13.59375 -30.609375 L 13.59375 0 L 11.34375 0 L 10.796875 -2.183594 L 33.484375 -7.855469 L 34.03125 -5.671875 L 31.78125 -5.671875 L 31.78125 -30.609375 L 58.972656 -30.609375 L 58.972656 0 L 56.71875 0 L 56.175781 -2.183594 L 78.863281 -7.855469 L 79.410156 -5.671875 L 77.15625 -5.671875 L 77.15625 -79.410156 L 79.410156 -79.410156 L 79.410156 -77.15625 L 56.71875 -77.15625 L 56.71875 -79.410156 L 58.972656 -79.410156 L 58.972656 -48.796875 L 31.78125 -48.796875 L 31.78125 -79.410156 L 34.03125 -79.410156 L 34.03125 -77.15625 L 11.34375 -77.15625 L 11.34375 -79.410156 L 13.59375 -79.410156 Z M 13.59375 -48.796875 "></path></g></g></g><g fill="#000000" fill-opacity="1"><g transform="translate(179.128047, 87.309494)"><g><path d="M 54.46875 -51.046875 L 54.46875 -56.71875 L 56.71875 -56.71875 L 56.71875 -54.46875 L 34.03125 -54.46875 L 34.03125 -56.71875 L 36.285156 -56.71875 L 36.285156 -51.046875 L 34.03125 -51.046875 L 34.03125 -53.300781 L 56.71875 -53.300781 L 56.71875 -51.046875 Z M 58.972656 -48.796875 L 31.78125 -48.796875 L 31.78125 -58.972656 L 58.972656 -58.972656 Z M 9.09375 -51.046875 L 9.09375 -81.660156 L 81.660156 -81.660156 L 81.660156 -3.914062 L 54.46875 2.882812 L 54.46875 -28.359375 L 56.71875 -28.359375 L 56.71875 -26.109375 L 34.03125 -26.109375 L 34.03125 -28.359375 L 36.285156 -28.359375 L 36.285156 -3.914062 L 9.09375 2.882812 L 9.09375 -28.359375 L 11.34375 -28.359375 L 11.34375 -26.109375 L -2.882812 -26.109375 L 3.914062 -53.300781 L 11.34375 -53.300781 L 11.34375 -51.046875 Z M 13.59375 -48.796875 L 5.671875 -48.796875 L 5.671875 -51.046875 L 7.855469 -50.503906 L 2.183594 -27.8125 L 0 -28.359375 L 0 -30.609375 L 13.59375 -30.609375 L 13.59375 0 L 11.34375 0 L 10.796875 -2.183594 L 33.484375 -7.855469 L 34.03125 -5.671875 L 31.78125 -5.671875 L 31.78125 -30.609375 L 58.972656 -30.609375 L 58.972656 0 L 56.71875 0 L 56.175781 -2.183594 L 78.863281 -7.855469 L 79.410156 -5.671875 L 77.15625 -5.671875 L 77.15625 -79.410156 L 79.410156 -79.410156 L 79.410156 -77.15625 L 11.34375 -77.15625 L 11.34375 -79.410156 L 13.59375 -79.410156 Z M 13.59375 -48.796875 "></path></g></g></g><g fill="#000000" fill-opacity="1"><g transform="translate(264.201079, 87.309494)"><g><path d="M 36.566406 -56.707031 L 36.273438 -3.910156 L 9.09375 2.882812 L 9.09375 -56.71875 L 11.34375 -56.71875 L 11.34375 -54.46875 L -2.882812 -54.46875 L 3.914062 -81.660156 L 81.660156 -81.660156 L 81.660156 -26.109375 L 70.902344 -26.109375 L 70.902344 -28.359375 L 72.699219 -29.714844 L 82.261719 -17.027344 L 64.660156 4.792969 L 44.789062 -21.546875 L 51.453125 -29.777344 L 53.203125 -28.359375 L 53.203125 -26.109375 L 36.820312 -26.109375 L 43.617188 -53.300781 L 56.71875 -53.300781 L 56.71875 -51.046875 L 54.46875 -51.046875 L 54.46875 -56.71875 L 56.71875 -56.71875 L 56.71875 -54.46875 L 34.316406 -54.46875 L 34.316406 -56.71875 Z M 32.078125 -58.972656 L 58.972656 -58.972656 L 58.972656 -48.796875 L 45.375 -48.796875 L 45.375 -51.046875 L 47.558594 -50.503906 L 41.886719 -27.8125 L 39.703125 -28.359375 L 39.703125 -30.609375 L 57.921875 -30.609375 L 49.394531 -20.082031 L 47.644531 -21.496094 L 49.441406 -22.851562 L 66.515625 -0.222656 L 64.71875 1.132812 L 62.964844 -0.277344 L 77.65625 -18.484375 L 79.410156 -17.074219 L 77.609375 -15.71875 L 66.386719 -30.609375 L 79.410156 -30.609375 L 79.410156 -28.359375 L 77.15625 -28.359375 L 77.15625 -79.410156 L 79.410156 -79.410156 L 79.410156 -77.15625 L 5.671875 -77.15625 L 5.671875 -79.410156 L 7.855469 -78.863281 L 2.183594 -56.175781 L 0 -56.71875 L 0 -58.972656 L 13.59375 -58.972656 L 13.59375 0 L 11.34375 0 L 10.796875 -2.183594 L 33.484375 -7.855469 L 34.03125 -5.671875 L 31.78125 -5.683594 L 32.066406 -56.734375 Z M 32.078125 -58.972656 "></path></g></g></g><g fill="#000000" fill-opacity="1"><g transform="translate(349.27411, 87.309494)"><g><path d="M 53.300781 -56.71875 L 53.300781 -3.914062 L 26.109375 2.882812 L 26.109375 -56.71875 L 28.359375 -56.71875 L 28.359375 -54.46875 L -2.882812 -54.46875 L 3.914062 -81.660156 L 81.660156 -81.660156 L 81.660156 -54.46875 L 51.046875 -54.46875 L 51.046875 -56.71875 Z M 48.796875 -58.972656 L 79.410156 -58.972656 L 79.410156 -56.71875 L 77.15625 -56.71875 L 77.15625 -79.410156 L 79.410156 -79.410156 L 79.410156 -77.15625 L 5.671875 -77.15625 L 5.671875 -79.410156 L 7.855469 -78.863281 L 2.183594 -56.175781 L 0 -56.71875 L 0 -58.972656 L 30.609375 -58.972656 L 30.609375 0 L 28.359375 0 L 27.8125 -2.183594 L 50.503906 -7.855469 L 51.046875 -5.671875 L 48.796875 -5.671875 Z M 48.796875 -58.972656 "></path></g></g></g><g fill="#ffa100" fill-opacity="1"><g transform="translate(8.981985, 87.309494)"><g><path d="M 79.40625 -79.40625 L 79.40625 -51.046875 L 56.71875 -45.375 L 56.71875 -56.71875 L 34.03125 -56.71875 L 34.03125 -22.6875 L 56.71875 -22.6875 L 56.71875 -34.03125 L 79.40625 -39.703125 L 79.40625 0 L 11.34375 0 L 11.34375 -56.71875 L 0 -56.71875 L 5.671875 -79.40625 Z M 79.40625 -79.40625 "></path></g></g></g><g fill="#ffa100" fill-opacity="1"><g transform="translate(94.055016, 87.309494)"><g><path d="M 11.34375 -51.046875 L 11.34375 -79.40625 L 34.03125 -79.40625 L 34.03125 -51.046875 L 56.71875 -51.046875 L 56.71875 -79.40625 L 79.40625 -79.40625 L 79.40625 -5.671875 L 56.71875 0 L 56.71875 -28.359375 L 34.03125 -28.359375 L 34.03125 -5.671875 L 11.34375 0 L 11.34375 -28.359375 L 0 -28.359375 L 5.671875 -51.046875 Z M 11.34375 -51.046875 "></path></g></g></g><g fill="#ffa100" fill-opacity="1"><g transform="translate(179.128047, 87.309494)"><g><path d="M 56.71875 -51.046875 L 56.71875 -56.71875 L 34.03125 -56.71875 L 34.03125 -51.046875 Z M 11.34375 -51.046875 L 11.34375 -79.40625 L 79.40625 -79.40625 L 79.40625 -5.671875 L 56.71875 0 L 56.71875 -28.359375 L 34.03125 -28.359375 L 34.03125 -5.671875 L 11.34375 0 L 11.34375 -28.359375 L 0 -28.359375 L 5.671875 -51.046875 Z M 11.34375 -51.046875 "></path></g></g></g><g fill="#ffa100" fill-opacity="1"><g transform="translate(264.201079, 87.309494)"><g><path d="M 34.3125 -56.71875 L 34.03125 -5.671875 L 11.34375 0 L 11.34375 -56.71875 L 0 -56.71875 L 5.671875 -79.40625 L 79.40625 -79.40625 L 79.40625 -28.359375 L 70.890625 -28.359375 L 79.40625 -17.078125 L 64.71875 1.140625 L 47.640625 -21.5 L 53.203125 -28.359375 L 39.703125 -28.359375 L 45.375 -51.046875 L 56.71875 -51.046875 L 56.71875 -56.71875 Z M 34.3125 -56.71875 "></path></g></g></g><g fill="#ffa100" fill-opacity="1"><g transform="translate(349.27411, 87.309494)"><g><path d="M 51.046875 -56.71875 L 51.046875 -5.671875 L 28.359375 0 L 28.359375 -56.71875 L 0 -56.71875 L 5.671875 -79.40625 L 79.40625 -79.40625 L 79.40625 -56.71875 Z M 51.046875 -56.71875 "></path></g></g></g></g></g></svg> 