<?xml version="1.0" encoding="UTF-8"?> <svg xmlns="http://www.w3.org/2000/svg" xmlns:xlink="http://www.w3.org/1999/xlink" width="600" zoomAndPan="magnify" viewBox="0 0 450 149.999998" height="200" preserveAspectRatio="xMidYMid meet" version="1.0"><defs><g></g><clipPath id="367f4404a5"><path d="M 0.878906 4 L 46 4 L 46 50 L 0.878906 50 Z M 0.878906 4 " clip-rule="nonzero"></path></clipPath><clipPath id="1f9f6c291c"><rect x="0" width="434" y="0" height="64"></rect></clipPath></defs><g transform="matrix(1, 0, 0, 1, 8, 43)"><g clip-path="url(#1f9f6c291c)"><g clip-path="url(#367f4404a5)"><g fill="#000000" fill-opacity="1"><g transform="translate(2.485854, 48.170288)"><g><path d="M 28.285156 -30.101562 L 28.285156 -2.078125 L 13.855469 1.53125 L 13.855469 -30.101562 L 15.050781 -30.101562 L 15.050781 -28.90625 L -1.53125 -28.90625 L 2.078125 -43.335938 L 43.335938 -43.335938 L 43.335938 -28.90625 L 27.089844 -28.90625 L 27.089844 -30.101562 Z M 25.894531 -31.292969 L 42.140625 -31.292969 L 42.140625 -30.101562 L 40.945312 -30.101562 L 40.945312 -42.140625 L 42.140625 -42.140625 L 42.140625 -40.945312 L 3.011719 -40.945312 L 3.011719 -42.140625 L 4.167969 -41.851562 L 1.160156 -29.808594 L 0 -30.101562 L 0 -31.292969 L 16.246094 -31.292969 L 16.246094 0 L 15.050781 0 L 14.761719 -1.160156 L 26.800781 -4.167969 L 27.089844 -3.011719 L 25.894531 -3.011719 Z M 25.894531 -31.292969 "></path></g></g></g></g><g fill="#000000" fill-opacity="1"><g transform="translate(47.634132, 48.170288)"><g><path d="M 15.050781 -13.234375 L 27.089844 -13.234375 L 27.089844 -12.039062 L 25.894531 -12.039062 L 25.894531 -30.101562 L 27.089844 -30.101562 L 27.089844 -28.90625 L 15.050781 -28.90625 L 15.050781 -30.101562 L 16.246094 -30.101562 L 16.246094 -12.039062 L 15.050781 -12.039062 Z M 13.855469 -10.84375 L 13.855469 -31.292969 L 28.285156 -31.292969 L 28.285156 -10.84375 Z M 3.011719 -43.335938 L 40.324219 -43.335938 L 40.324219 1.195312 L 1.816406 1.195312 L 1.816406 -43.335938 Z M 3.011719 -40.945312 L 3.011719 -42.140625 L 4.203125 -42.140625 L 4.203125 0 L 3.011719 0 L 3.011719 -1.195312 L 39.128906 -1.195312 L 39.128906 0 L 37.9375 0 L 37.9375 -42.140625 L 39.128906 -42.140625 L 39.128906 -40.945312 Z M 3.011719 -40.945312 "></path></g></g></g><g fill="#000000" fill-opacity="1"><g transform="translate(89.772524, 48.170288)"><g><path d="M 19.253906 -19.714844 L 19.253906 -2.078125 L 4.824219 1.53125 L 4.824219 -30.101562 L 6.019531 -30.101562 L 6.019531 -28.90625 L -1.53125 -28.90625 L 2.078125 -43.335938 L 19.253906 -43.335938 L 19.253906 -34.253906 L 18.058594 -34.253906 L 17.640625 -35.371094 L 39.988281 -43.738281 L 43.535156 -28.277344 L 31.796875 -23.71875 L 31.363281 -24.832031 L 32.351562 -25.507812 L 43.628906 -9 L 34.285156 2.578125 L 19.625 -18.03125 L 22.507812 -22.445312 L 23.507812 -21.792969 L 23.933594 -20.675781 L 18.484375 -18.597656 L 18.058594 -19.714844 Z M 16.867188 -20.539062 L 26.519531 -24.21875 L 22.070312 -17.40625 L 21.070312 -18.058594 L 22.042969 -18.753906 L 35.316406 -0.0898438 L 34.34375 0.601562 L 33.414062 -0.148438 L 41.210938 -9.808594 L 42.140625 -9.058594 L 41.152344 -8.386719 L 29.527344 -25.402344 L 41.707031 -30.128906 L 42.140625 -29.015625 L 40.976562 -28.75 L 37.964844 -41.875 L 39.128906 -42.140625 L 39.546875 -41.023438 L 16.867188 -32.53125 L 16.867188 -42.140625 L 18.058594 -42.140625 L 18.058594 -40.945312 L 3.011719 -40.945312 L 3.011719 -42.140625 L 4.167969 -41.851562 L 1.160156 -29.808594 L 0 -30.101562 L 0 -31.292969 L 7.214844 -31.292969 L 7.214844 0 L 6.019531 0 L 5.730469 -1.160156 L 17.769531 -4.167969 L 18.058594 -3.011719 L 16.867188 -3.011719 Z M 16.867188 -20.539062 "></path></g></g></g><g fill="#000000" fill-opacity="1"><g transform="translate(134.920802, 48.170288)"><g><path d="M 4.824219 -27.089844 L 4.824219 -43.335938 L 43.335938 -43.335938 L 43.335938 -28.90625 L 18.058594 -28.90625 L 18.058594 -30.101562 L 19.253906 -30.101562 L 19.253906 -27.089844 L 18.058594 -27.089844 L 18.058594 -28.285156 L 43.671875 -28.285156 L 40.0625 -13.855469 L 18.058594 -13.855469 L 18.058594 -15.050781 L 19.253906 -15.050781 L 19.253906 -12.039062 L 18.058594 -12.039062 L 18.058594 -13.234375 L 43.335938 -13.234375 L 43.335938 1.195312 L 4.824219 1.195312 L 4.824219 -15.050781 L 6.019531 -15.050781 L 6.019531 -13.855469 L -1.53125 -13.855469 L 2.078125 -28.285156 L 6.019531 -28.285156 L 6.019531 -27.089844 Z M 7.214844 -25.894531 L 3.011719 -25.894531 L 3.011719 -27.089844 L 4.167969 -26.800781 L 1.160156 -14.761719 L 0 -15.050781 L 0 -16.246094 L 7.214844 -16.246094 L 7.214844 0 L 6.019531 0 L 6.019531 -1.195312 L 42.140625 -1.195312 L 42.140625 0 L 40.945312 0 L 40.945312 -12.039062 L 42.140625 -12.039062 L 42.140625 -10.84375 L 16.867188 -10.84375 L 16.867188 -16.246094 L 39.128906 -16.246094 L 39.128906 -15.050781 L 37.972656 -15.339844 L 40.980469 -27.378906 L 42.140625 -27.089844 L 42.140625 -25.894531 L 16.867188 -25.894531 L 16.867188 -31.292969 L 42.140625 -31.292969 L 42.140625 -30.101562 L 40.945312 -30.101562 L 40.945312 -42.140625 L 42.140625 -42.140625 L 42.140625 -40.945312 L 6.019531 -40.945312 L 6.019531 -42.140625 L 7.214844 -42.140625 Z M 7.214844 -25.894531 "></path></g></g></g><g fill="#000000" fill-opacity="1"><g transform="translate(180.06908, 48.170288)"><g><path d="M 43.335938 -42.140625 L 43.335938 -2.078125 L 28.90625 1.53125 L 28.90625 -30.101562 L 30.101562 -30.101562 L 30.101562 -28.90625 L 18.058594 -28.90625 L 18.058594 -30.101562 L 19.253906 -30.101562 L 19.253906 -2.078125 L 4.824219 1.53125 L 4.824219 -30.101562 L 6.019531 -30.101562 L 6.019531 -28.90625 L -1.53125 -28.90625 L 2.078125 -43.335938 L 43.335938 -43.335938 Z M 40.945312 -42.140625 L 42.140625 -42.140625 L 42.140625 -40.945312 L 3.011719 -40.945312 L 3.011719 -42.140625 L 4.167969 -41.851562 L 1.160156 -29.808594 L 0 -30.101562 L 0 -31.292969 L 7.214844 -31.292969 L 7.214844 0 L 6.019531 0 L 5.730469 -1.160156 L 17.769531 -4.167969 L 18.058594 -3.011719 L 16.867188 -3.011719 L 16.867188 -31.292969 L 31.292969 -31.292969 L 31.292969 0 L 30.101562 0 L 29.808594 -1.160156 L 41.851562 -4.167969 L 42.140625 -3.011719 L 40.945312 -3.011719 Z M 40.945312 -42.140625 "></path></g></g></g><g fill="#000000" fill-opacity="1"><g transform="translate(225.217358, 48.170288)"><g><path d="M 15.050781 -13.234375 L 27.089844 -13.234375 L 27.089844 -12.039062 L 25.894531 -12.039062 L 25.894531 -30.101562 L 27.089844 -30.101562 L 27.089844 -28.90625 L 15.050781 -28.90625 L 15.050781 -30.101562 L 16.246094 -30.101562 L 16.246094 -12.039062 L 15.050781 -12.039062 Z M 13.855469 -10.84375 L 13.855469 -31.292969 L 28.285156 -31.292969 L 28.285156 -10.84375 Z M 3.011719 -43.335938 L 40.324219 -43.335938 L 40.324219 1.195312 L 1.816406 1.195312 L 1.816406 -43.335938 Z M 3.011719 -40.945312 L 3.011719 -42.140625 L 4.203125 -42.140625 L 4.203125 0 L 3.011719 0 L 3.011719 -1.195312 L 39.128906 -1.195312 L 39.128906 0 L 37.9375 0 L 37.9375 -42.140625 L 39.128906 -42.140625 L 39.128906 -40.945312 Z M 3.011719 -40.945312 "></path></g></g></g><g fill="#000000" fill-opacity="1"><g transform="translate(267.355751, 48.170288)"><g><path d="M 55.375 -42.140625 L 55.375 -2.078125 L 40.945312 1.53125 L 40.945312 -30.101562 L 42.140625 -30.101562 L 42.140625 -28.90625 L 36.121094 -28.90625 L 36.121094 -30.101562 L 37.316406 -30.101562 L 37.316406 -2.078125 L 22.886719 1.53125 L 22.886719 -30.101562 L 24.078125 -30.101562 L 24.078125 -28.90625 L 18.058594 -28.90625 L 18.058594 -30.101562 L 19.253906 -30.101562 L 19.253906 -2.078125 L 4.824219 1.53125 L 4.824219 -30.101562 L 6.019531 -30.101562 L 6.019531 -28.90625 L -1.53125 -28.90625 L 2.078125 -43.335938 L 55.375 -43.335938 Z M 52.984375 -42.140625 L 54.179688 -42.140625 L 54.179688 -40.945312 L 3.011719 -40.945312 L 3.011719 -42.140625 L 4.167969 -41.851562 L 1.160156 -29.808594 L 0 -30.101562 L 0 -31.292969 L 7.214844 -31.292969 L 7.214844 0 L 6.019531 0 L 5.730469 -1.160156 L 17.769531 -4.167969 L 18.058594 -3.011719 L 16.867188 -3.011719 L 16.867188 -31.292969 L 25.273438 -31.292969 L 25.273438 0 L 24.078125 0 L 23.789062 -1.160156 L 35.832031 -4.167969 L 36.121094 -3.011719 L 34.925781 -3.011719 L 34.925781 -31.292969 L 43.335938 -31.292969 L 43.335938 0 L 42.140625 0 L 41.851562 -1.160156 L 53.890625 -4.167969 L 54.179688 -3.011719 L 52.984375 -3.011719 Z M 52.984375 -42.140625 "></path></g></g></g><g fill="#000000" fill-opacity="1"><g transform="translate(324.543556, 48.170288)"><g><path d="M 16.246094 -42.140625 L 16.246094 -2.078125 L 1.816406 1.53125 L 1.816406 -40.0625 L 16.246094 -43.671875 Z M 13.855469 -42.140625 L 15.050781 -42.140625 L 15.339844 -40.980469 L 3.300781 -37.972656 L 3.011719 -39.128906 L 4.203125 -39.128906 L 4.203125 0 L 3.011719 0 L 2.71875 -1.160156 L 14.761719 -4.167969 L 15.050781 -3.011719 L 13.855469 -3.011719 Z M 13.855469 -42.140625 "></path></g></g></g><g fill="#000000" fill-opacity="1"><g transform="translate(342.602895, 48.170288)"><g><path d="M 43.335938 -42.140625 L 43.335938 -26.15625 L 28.90625 -22.550781 L 28.90625 -30.101562 L 30.101562 -30.101562 L 30.101562 -28.90625 L 18.058594 -28.90625 L 18.058594 -30.101562 L 19.253906 -30.101562 L 19.253906 -12.039062 L 18.058594 -12.039062 L 18.058594 -13.234375 L 30.101562 -13.234375 L 30.101562 -12.039062 L 28.90625 -12.039062 L 28.90625 -18.992188 L 43.335938 -22.601562 L 43.335938 1.195312 L 4.824219 1.195312 L 4.824219 -30.101562 L 6.019531 -30.101562 L 6.019531 -28.90625 L -1.53125 -28.90625 L 2.078125 -43.335938 L 43.335938 -43.335938 Z M 40.945312 -42.140625 L 42.140625 -42.140625 L 42.140625 -40.945312 L 3.011719 -40.945312 L 3.011719 -42.140625 L 4.167969 -41.851562 L 1.160156 -29.808594 L 0 -30.101562 L 0 -31.292969 L 7.214844 -31.292969 L 7.214844 0 L 6.019531 0 L 6.019531 -1.195312 L 42.140625 -1.195312 L 42.140625 0 L 40.945312 0 L 40.945312 -21.070312 L 42.140625 -21.070312 L 42.429688 -19.910156 L 30.390625 -16.902344 L 30.101562 -18.058594 L 31.292969 -18.058594 L 31.292969 -10.84375 L 16.867188 -10.84375 L 16.867188 -31.292969 L 31.292969 -31.292969 L 31.292969 -24.078125 L 30.101562 -24.078125 L 29.808594 -25.238281 L 41.851562 -28.25 L 42.140625 -27.089844 L 40.945312 -27.089844 Z M 40.945312 -42.140625 "></path></g></g></g><g fill="#000000" fill-opacity="1"><g transform="translate(387.751159, 48.170288)"><g><path d="M 30.101562 -13.855469 L -1.53125 -13.855469 L 2.078125 -28.285156 L 6.019531 -28.285156 L 6.019531 -27.089844 L 4.824219 -27.089844 L 4.824219 -43.335938 L 43.335938 -43.335938 L 43.335938 -28.90625 L 18.058594 -28.90625 L 18.058594 -30.101562 L 19.253906 -30.101562 L 19.253906 -27.089844 L 18.058594 -27.089844 L 18.058594 -28.285156 L 43.335938 -28.285156 L 43.335938 1.195312 L 4.824219 1.195312 L 4.824219 -13.234375 L 30.101562 -13.234375 L 30.101562 -12.039062 L 28.90625 -12.039062 L 28.90625 -15.050781 L 30.101562 -15.050781 Z M 31.292969 -16.246094 L 31.292969 -10.84375 L 6.019531 -10.84375 L 6.019531 -12.039062 L 7.214844 -12.039062 L 7.214844 0 L 6.019531 0 L 6.019531 -1.195312 L 42.140625 -1.195312 L 42.140625 0 L 40.945312 0 L 40.945312 -27.089844 L 42.140625 -27.089844 L 42.140625 -25.894531 L 16.867188 -25.894531 L 16.867188 -31.292969 L 42.140625 -31.292969 L 42.140625 -30.101562 L 40.945312 -30.101562 L 40.945312 -42.140625 L 42.140625 -42.140625 L 42.140625 -40.945312 L 6.019531 -40.945312 L 6.019531 -42.140625 L 7.214844 -42.140625 L 7.214844 -25.894531 L 3.011719 -25.894531 L 3.011719 -27.089844 L 4.167969 -26.800781 L 1.160156 -14.761719 L 0 -15.050781 L 0 -16.246094 Z M 31.292969 -16.246094 "></path></g></g></g><g fill="#ffa100" fill-opacity="1"><g transform="translate(2.485854, 48.170288)"><g><path d="M 27.09375 -30.09375 L 27.09375 -3.015625 L 15.046875 0 L 15.046875 -30.09375 L 0 -30.09375 L 3.015625 -42.140625 L 42.140625 -42.140625 L 42.140625 -30.09375 Z M 27.09375 -30.09375 "></path></g></g></g><g fill="#ffa100" fill-opacity="1"><g transform="translate(47.634132, 48.170288)"><g><path d="M 15.046875 -12.046875 L 27.09375 -12.046875 L 27.09375 -30.09375 L 15.046875 -30.09375 Z M 3.015625 -42.140625 L 39.125 -42.140625 L 39.125 0 L 3.015625 0 Z M 3.015625 -42.140625 "></path></g></g></g><g fill="#ffa100" fill-opacity="1"><g transform="translate(89.772524, 48.170288)"><g><path d="M 18.0625 -19.71875 L 18.0625 -3.015625 L 6.015625 0 L 6.015625 -30.09375 L 0 -30.09375 L 3.015625 -42.140625 L 18.0625 -42.140625 L 18.0625 -34.25 L 39.125 -42.140625 L 42.140625 -29.015625 L 31.359375 -24.828125 L 42.140625 -9.0625 L 34.34375 0.609375 L 21.0625 -18.0625 L 23.5 -21.796875 Z M 18.0625 -19.71875 "></path></g></g></g><g fill="#ffa100" fill-opacity="1"><g transform="translate(134.920802, 48.170288)"><g><path d="M 6.015625 -27.09375 L 6.015625 -42.140625 L 42.140625 -42.140625 L 42.140625 -30.09375 L 18.0625 -30.09375 L 18.0625 -27.09375 L 42.140625 -27.09375 L 39.125 -15.046875 L 18.0625 -15.046875 L 18.0625 -12.046875 L 42.140625 -12.046875 L 42.140625 0 L 6.015625 0 L 6.015625 -15.046875 L 0 -15.046875 L 3.015625 -27.09375 Z M 6.015625 -27.09375 "></path></g></g></g><g fill="#ffa100" fill-opacity="1"><g transform="translate(180.06908, 48.170288)"><g><path d="M 42.140625 -42.140625 L 42.140625 -3.015625 L 30.09375 0 L 30.09375 -30.09375 L 18.0625 -30.09375 L 18.0625 -3.015625 L 6.015625 0 L 6.015625 -30.09375 L 0 -30.09375 L 3.015625 -42.140625 Z M 42.140625 -42.140625 "></path></g></g></g><g fill="#ffa100" fill-opacity="1"><g transform="translate(225.217358, 48.170288)"><g><path d="M 15.046875 -12.046875 L 27.09375 -12.046875 L 27.09375 -30.09375 L 15.046875 -30.09375 Z M 3.015625 -42.140625 L 39.125 -42.140625 L 39.125 0 L 3.015625 0 Z M 3.015625 -42.140625 "></path></g></g></g><g fill="#ffa100" fill-opacity="1"><g transform="translate(267.355751, 48.170288)"><g><path d="M 54.171875 -42.140625 L 54.171875 -3.015625 L 42.140625 0 L 42.140625 -30.09375 L 36.125 -30.09375 L 36.125 -3.015625 L 24.078125 0 L 24.078125 -30.09375 L 18.0625 -30.09375 L 18.0625 -3.015625 L 6.015625 0 L 6.015625 -30.09375 L 0 -30.09375 L 3.015625 -42.140625 Z M 54.171875 -42.140625 "></path></g></g></g><g fill="#ffa100" fill-opacity="1"><g transform="translate(324.543556, 48.170288)"><g><path d="M 15.046875 -42.140625 L 15.046875 -3.015625 L 3.015625 0 L 3.015625 -39.125 Z M 15.046875 -42.140625 "></path></g></g></g><g fill="#ffa100" fill-opacity="1"><g transform="translate(342.602895, 48.170288)"><g><path d="M 42.140625 -42.140625 L 42.140625 -27.09375 L 30.09375 -24.078125 L 30.09375 -30.09375 L 18.0625 -30.09375 L 18.0625 -12.046875 L 30.09375 -12.046875 L 30.09375 -18.0625 L 42.140625 -21.0625 L 42.140625 0 L 6.015625 0 L 6.015625 -30.09375 L 0 -30.09375 L 3.015625 -42.140625 Z M 42.140625 -42.140625 "></path></g></g></g><g fill="#ffa100" fill-opacity="1"><g transform="translate(387.751159, 48.170288)"><g><path d="M 30.09375 -15.046875 L 0 -15.046875 L 3.015625 -27.09375 L 6.015625 -27.09375 L 6.015625 -42.140625 L 42.140625 -42.140625 L 42.140625 -30.09375 L 18.0625 -30.09375 L 18.0625 -27.09375 L 42.140625 -27.09375 L 42.140625 0 L 6.015625 0 L 6.015625 -12.046875 L 30.09375 -12.046875 Z M 30.09375 -15.046875 "></path></g></g></g></g></g></svg> 