<?xml version="1.0" encoding="UTF-8"?> <svg xmlns="http://www.w3.org/2000/svg" xmlns:xlink="http://www.w3.org/1999/xlink" width="600" zoomAndPan="magnify" viewBox="0 0 450 149.999998" height="200" preserveAspectRatio="xMidYMid meet" version="1.0"><defs><g></g><clipPath id="fe00bbc45f"><rect x="0" width="437" y="0" height="121"></rect></clipPath></defs><g transform="matrix(1, 0, 0, 1, 12, 23)"><g clip-path="url(#fe00bbc45f)"><g fill="#000000" fill-opacity="1"><g transform="translate(5.79008, 87.309494)"><g><path d="M 54.46875 -51.046875 L 54.46875 -56.71875 L 56.71875 -56.71875 L 56.71875 -54.46875 L 34.03125 -54.46875 L 34.03125 -56.71875 L 36.285156 -56.71875 L 36.285156 -51.046875 L 34.03125 -51.046875 L 34.03125 -53.300781 L 56.71875 -53.300781 L 56.71875 -51.046875 Z M 58.972656 -48.796875 L 31.78125 -48.796875 L 31.78125 -58.972656 L 58.972656 -58.972656 Z M 9.09375 -51.046875 L 9.09375 -81.660156 L 81.660156 -81.660156 L 81.660156 -3.914062 L 54.46875 2.882812 L 54.46875 -28.359375 L 56.71875 -28.359375 L 56.71875 -26.109375 L 34.03125 -26.109375 L 34.03125 -28.359375 L 36.285156 -28.359375 L 36.285156 -3.914062 L 9.09375 2.882812 L 9.09375 -28.359375 L 11.34375 -28.359375 L 11.34375 -26.109375 L -2.882812 -26.109375 L 3.914062 -53.300781 L 11.34375 -53.300781 L 11.34375 -51.046875 Z M 13.59375 -48.796875 L 5.671875 -48.796875 L 5.671875 -51.046875 L 7.855469 -50.503906 L 2.183594 -27.8125 L 0 -28.359375 L 0 -30.609375 L 13.59375 -30.609375 L 13.59375 0 L 11.34375 0 L 10.796875 -2.183594 L 33.484375 -7.855469 L 34.03125 -5.671875 L 31.78125 -5.671875 L 31.78125 -30.609375 L 58.972656 -30.609375 L 58.972656 0 L 56.71875 0 L 56.175781 -2.183594 L 78.863281 -7.855469 L 79.410156 -5.671875 L 77.15625 -5.671875 L 77.15625 -79.410156 L 79.410156 -79.410156 L 79.410156 -77.15625 L 11.34375 -77.15625 L 11.34375 -79.410156 L 13.59375 -79.410156 Z M 13.59375 -48.796875 "></path></g></g></g><g fill="#000000" fill-opacity="1"><g transform="translate(90.863112, 87.309494)"><g><path d="M 36.285156 -56.71875 L 36.285156 -51.046875 L 34.03125 -51.046875 L 34.03125 -53.300781 L 56.71875 -53.300781 L 56.71875 -51.046875 L 54.46875 -51.046875 L 54.46875 -56.71875 L 56.71875 -56.71875 L 56.71875 -54.46875 L 34.03125 -54.46875 L 34.03125 -56.71875 Z M 31.78125 -58.972656 L 58.972656 -58.972656 L 58.972656 -48.796875 L 31.78125 -48.796875 Z M 34.03125 -24.9375 L 56.71875 -24.9375 L 56.71875 -22.6875 L 54.46875 -22.6875 L 54.46875 -28.359375 L 56.71875 -28.359375 L 56.71875 -26.109375 L 34.03125 -26.109375 L 34.03125 -28.359375 L 36.285156 -28.359375 L 36.285156 -22.6875 L 34.03125 -22.6875 Z M 31.78125 -20.4375 L 31.78125 -30.609375 L 58.972656 -30.609375 L 58.972656 -20.4375 Z M 79.410156 2.25 L 9.09375 2.25 L 9.09375 -28.359375 L 11.34375 -28.359375 L 11.34375 -26.109375 L -2.882812 -26.109375 L 3.914062 -53.300781 L 11.34375 -53.300781 L 11.34375 -51.046875 L 9.09375 -51.046875 L 9.09375 -81.660156 L 81.660156 -81.660156 L 81.660156 2.25 Z M 79.410156 -2.25 L 79.410156 0 L 77.15625 0 L 77.15625 -79.410156 L 79.410156 -79.410156 L 79.410156 -77.15625 L 11.34375 -77.15625 L 11.34375 -79.410156 L 13.59375 -79.410156 L 13.59375 -48.796875 L 5.671875 -48.796875 L 5.671875 -51.046875 L 7.855469 -50.503906 L 2.183594 -27.8125 L 0 -28.359375 L 0 -30.609375 L 13.59375 -30.609375 L 13.59375 0 L 11.34375 0 L 11.34375 -2.25 Z M 79.410156 -2.25 "></path></g></g></g><g fill="#000000" fill-opacity="1"><g transform="translate(175.936143, 87.309494)"><g><path d="M 28.359375 -24.9375 L 51.046875 -24.9375 L 51.046875 -22.6875 L 48.796875 -22.6875 L 48.796875 -56.71875 L 51.046875 -56.71875 L 51.046875 -54.46875 L 28.359375 -54.46875 L 28.359375 -56.71875 L 30.609375 -56.71875 L 30.609375 -22.6875 L 28.359375 -22.6875 Z M 26.109375 -20.4375 L 26.109375 -58.972656 L 53.300781 -58.972656 L 53.300781 -20.4375 Z M 5.671875 -81.660156 L 75.988281 -81.660156 L 75.988281 2.25 L 3.421875 2.25 L 3.421875 -81.660156 Z M 5.671875 -77.15625 L 5.671875 -79.410156 L 7.921875 -79.410156 L 7.921875 0 L 5.671875 0 L 5.671875 -2.25 L 73.738281 -2.25 L 73.738281 0 L 71.484375 0 L 71.484375 -79.410156 L 73.738281 -79.410156 L 73.738281 -77.15625 Z M 5.671875 -77.15625 "></path></g></g></g><g fill="#000000" fill-opacity="1"><g transform="translate(255.337639, 87.309494)"><g><path d="M 36.285156 -79.410156 L 36.285156 -22.6875 L 34.03125 -22.6875 L 34.03125 -24.9375 L 56.71875 -24.9375 L 56.71875 -22.6875 L 54.46875 -22.6875 L 54.46875 -81.660156 L 81.660156 -81.660156 L 81.660156 2.25 L 9.09375 2.25 L 9.09375 -56.71875 L 11.34375 -56.71875 L 11.34375 -54.46875 L -2.882812 -54.46875 L 3.914062 -81.660156 L 36.285156 -81.660156 Z M 31.78125 -79.410156 L 34.03125 -79.410156 L 34.03125 -77.15625 L 5.671875 -77.15625 L 5.671875 -79.410156 L 7.855469 -78.863281 L 2.183594 -56.175781 L 0 -56.71875 L 0 -58.972656 L 13.59375 -58.972656 L 13.59375 0 L 11.34375 0 L 11.34375 -2.25 L 79.410156 -2.25 L 79.410156 0 L 77.15625 0 L 77.15625 -79.410156 L 79.410156 -79.410156 L 79.410156 -77.15625 L 56.71875 -77.15625 L 56.71875 -79.410156 L 58.972656 -79.410156 L 58.972656 -20.4375 L 31.78125 -20.4375 Z M 31.78125 -79.410156 "></path></g></g></g><g fill="#000000" fill-opacity="1"><g transform="translate(340.41067, 87.309494)"><g><path d="M 53.300781 -56.71875 L 53.300781 -3.914062 L 26.109375 2.882812 L 26.109375 -56.71875 L 28.359375 -56.71875 L 28.359375 -54.46875 L -2.882812 -54.46875 L 3.914062 -81.660156 L 81.660156 -81.660156 L 81.660156 -54.46875 L 51.046875 -54.46875 L 51.046875 -56.71875 Z M 48.796875 -58.972656 L 79.410156 -58.972656 L 79.410156 -56.71875 L 77.15625 -56.71875 L 77.15625 -79.410156 L 79.410156 -79.410156 L 79.410156 -77.15625 L 5.671875 -77.15625 L 5.671875 -79.410156 L 7.855469 -78.863281 L 2.183594 -56.175781 L 0 -56.71875 L 0 -58.972656 L 30.609375 -58.972656 L 30.609375 0 L 28.359375 0 L 27.8125 -2.183594 L 50.503906 -7.855469 L 51.046875 -5.671875 L 48.796875 -5.671875 Z M 48.796875 -58.972656 "></path></g></g></g><g fill="#ffa100" fill-opacity="1"><g transform="translate(5.79008, 87.309494)"><g><path d="M 56.71875 -51.046875 L 56.71875 -56.71875 L 34.03125 -56.71875 L 34.03125 -51.046875 Z M 11.34375 -51.046875 L 11.34375 -79.40625 L 79.40625 -79.40625 L 79.40625 -5.671875 L 56.71875 0 L 56.71875 -28.359375 L 34.03125 -28.359375 L 34.03125 -5.671875 L 11.34375 0 L 11.34375 -28.359375 L 0 -28.359375 L 5.671875 -51.046875 Z M 11.34375 -51.046875 "></path></g></g></g><g fill="#ffa100" fill-opacity="1"><g transform="translate(90.863112, 87.309494)"><g><path d="M 34.03125 -56.71875 L 34.03125 -51.046875 L 56.71875 -51.046875 L 56.71875 -56.71875 Z M 34.03125 -22.6875 L 56.71875 -22.6875 L 56.71875 -28.359375 L 34.03125 -28.359375 Z M 79.40625 0 L 11.34375 0 L 11.34375 -28.359375 L 0 -28.359375 L 5.671875 -51.046875 L 11.34375 -51.046875 L 11.34375 -79.40625 L 79.40625 -79.40625 Z M 79.40625 0 "></path></g></g></g><g fill="#ffa100" fill-opacity="1"><g transform="translate(175.936143, 87.309494)"><g><path d="M 28.359375 -22.6875 L 51.046875 -22.6875 L 51.046875 -56.71875 L 28.359375 -56.71875 Z M 5.671875 -79.40625 L 73.734375 -79.40625 L 73.734375 0 L 5.671875 0 Z M 5.671875 -79.40625 "></path></g></g></g><g fill="#ffa100" fill-opacity="1"><g transform="translate(255.337639, 87.309494)"><g><path d="M 34.03125 -79.40625 L 34.03125 -22.6875 L 56.71875 -22.6875 L 56.71875 -79.40625 L 79.40625 -79.40625 L 79.40625 0 L 11.34375 0 L 11.34375 -56.71875 L 0 -56.71875 L 5.671875 -79.40625 Z M 34.03125 -79.40625 "></path></g></g></g><g fill="#ffa100" fill-opacity="1"><g transform="translate(340.41067, 87.309494)"><g><path d="M 51.046875 -56.71875 L 51.046875 -5.671875 L 28.359375 0 L 28.359375 -56.71875 L 0 -56.71875 L 5.671875 -79.40625 L 79.40625 -79.40625 L 79.40625 -56.71875 Z M 51.046875 -56.71875 "></path></g></g></g></g></g></svg> 